<?xml version="1.0" encoding="UTF-8" standalone="no"?>
<!-- Created with Inkscape (http://www.inkscape.org/) -->

<svg
   width="210mm"
   height="297mm"
   viewBox="0 0 210 297"
   version="1.1"
   id="svg5"
   inkscape:version="1.2.2 (732a01da63, 2022-12-09)"
   sodipodi:docname="risba.svg"
   xmlns:inkscape="http://www.inkscape.org/namespaces/inkscape"
   xmlns:sodipodi="http://sodipodi.sourceforge.net/DTD/sodipodi-0.dtd"
   xmlns="http://www.w3.org/2000/svg"
   xmlns:svg="http://www.w3.org/2000/svg">
  <sodipodi:namedview
     id="namedview7"
     pagecolor="#ffffff"
     bordercolor="#000000"
     borderopacity="0.25"
     inkscape:showpageshadow="2"
     inkscape:pageopacity="0.0"
     inkscape:pagecheckerboard="0"
     inkscape:deskcolor="#d1d1d1"
     inkscape:document-units="mm"
     showgrid="false"
     inkscape:zoom="0.74564394"
     inkscape:cx="179.03988"
     inkscape:cy="579.365"
     inkscape:window-width="1920"
     inkscape:window-height="1017"
     inkscape:window-x="-8"
     inkscape:window-y="-8"
     inkscape:window-maximized="1"
     inkscape:current-layer="layer1" />
  <defs
     id="defs2" />
  <g
     inkscape:label="Plast 1"
     inkscape:groupmode="layer"
     id="layer1">
    <circle
       style="fill:#1a1a1a;stroke-width:0.264583"
       id="path717"
       cx="101.83871"
       cy="151.1613"
       r="76.290321" />
    <circle
       style="fill:#333333;stroke-width:0.278657"
       id="path271"
       cx="101.83868"
       cy="150.80646"
       r="70.258064" />
    <path
       id="path1013"
       style="fill:#202020;stroke-width:0.264583"
       d="m 165.68351,117.56652 a 24.882567,70.211101 59.679801 0 0 -72.999826,13.76565 24.882567,70.211101 59.679801 0 0 -48.302611,56.97267 24.882567,70.211101 59.679801 0 0 72.999827,-13.76565 24.882567,70.211101 59.679801 0 0 48.30261,-56.97267 z m -11.17564,6.72271 a 22.216547,56.670471 59.660953 0 1 -37.92853,47.83667 22.216547,56.670471 59.660953 0 1 -59.979548,9.25906 22.216547,56.670471 59.660953 0 1 37.928508,-47.83669 22.216547,56.670471 59.660953 0 1 59.97957,-9.25904 z" />
    <path
       id="path1019"
       style="opacity:1;fill:#202020;stroke-width:0.264583;fill-opacity:1"
       d="m 162.91257,186.59197 a 66.138371,23.265498 29.842847 0 0 -45.67195,-53.07043 66.138371,23.265498 29.842847 0 0 -69.024096,-12.82279 66.138371,23.265498 29.842847 0 0 45.67195,53.07041 66.138371,23.265498 29.842847 0 0 69.024096,12.82281 z m -10.73365,-5.97505 a 53.383133,20.772761 29.833716 0 1 -56.712932,-8.62487 53.383133,20.772761 29.833716 0 1 -35.862846,-44.56018 53.383133,20.772761 29.833716 0 1 56.712938,8.62486 53.383133,20.772761 29.833716 0 1 35.86284,44.56019 z" />
    <ellipse
       style="opacity:1;fill:#202020;fill-opacity:1;stroke-width:0.264584"
       id="circle2065"
       cx="103.08066"
       cy="151.5161"
       rx="8.6935492"
       ry="7.8064504" />
    <path
       id="path1851"
       style="fill:#202020;fill-opacity:1;stroke-width:0.264583"
       d="M 104.67746,86.935661 A 24.48387,67.064507 0 0 0 80.193495,154.0002 24.48387,67.064507 0 0 0 104.67746,221.0647 24.48387,67.064507 0 0 0 129.16141,154.0002 24.48387,67.064507 0 0 0 104.67746,86.935661 Z m 0.17471,12.454817 A 21.8606,54.130637 0 0 1 126.7128,153.52095 21.8606,54.130637 0 0 1 104.85217,207.6514 21.8606,54.130637 0 0 1 82.991532,153.52095 21.8606,54.130637 0 0 1 104.85217,99.390478 Z" />
    <path
       id="path772"
       style="fill:#006400;stroke-width:0.264583"
       d="M 101.83875 80.548572 A 24.838709 70.435478 0 0 0 76.999951 150.98407 A 24.838709 70.435478 0 0 0 101.83875 221.41956 A 24.838709 70.435478 0 0 0 126.67754 150.98407 A 24.838709 70.435478 0 0 0 101.83875 80.548572 z M 102.016 93.629427 A 22.17742 56.851494 0 0 1 124.19345 150.48074 A 22.17742 56.851494 0 0 1 102.016 207.33205 A 22.17742 56.851494 0 0 1 79.838538 150.48074 A 22.17742 56.851494 0 0 1 102.016 93.629427 z " />
    <path
       id="path886"
       style="fill:#68e000;stroke-width:0.264583;opacity:1"
       d="m 162.83767,186.20182 a 70.435478,24.838709 30 0 0 -48.57953,-56.72879 70.435478,24.838709 30 0 0 -73.418325,-13.70671 70.435478,24.838709 30 0 0 48.579528,56.72877 70.435478,24.838709 30 0 0 73.418327,13.70673 z m -11.41698,-6.38693 a 56.851494,22.17742 30 0 1 -60.323405,-9.21942 56.851494,22.17742 30 0 1 -38.145954,-47.63189 56.851494,22.17742 30 0 1 60.323409,9.21941 56.851494,22.17742 30 0 1 38.14595,47.6319 z" />
    <path
       id="path888"
       style="fill:#009400;stroke-width:0.264583"
       d="m 162.83767,115.76632 a 24.838709,70.435478 60 0 0 -73.418325,13.70672 24.838709,70.435478 60 0 0 -48.579524,56.72878 24.838709,70.435478 60 0 0 73.418319,-13.70672 24.838709,70.435478 60 0 0 48.57953,-56.72878 z m -11.23972,6.69393 a 22.17742,56.851494 60 0 1 -38.14596,47.63189 22.17742,56.851494 60 0 1 -60.323403,9.21942 22.17742,56.851494 60 0 1 38.145948,-47.6319 22.17742,56.851494 60 0 1 60.323415,-9.21941 z" />
    <circle
       style="opacity:1;fill:#006400;stroke-width:0.264583"
       id="path1011"
       cx="101.66129"
       cy="149.91934"
       r="7.983871" />
  </g>
</svg>
